<svg width="393" height="852" viewBox="0 0 393 852" xmlns="http://www.w3.org/2000/svg"><rect width="393" height="852" fill="#F2F2F7"/><text x="26" y="36" font-family="-apple-system, 'SF Pro Display', Helvetica, Arial, sans-serif" font-size="16" font-weight="700" fill="#1C1C1E">9:41</text><g fill="#1C1C1E"><rect x="300" y="22" width="3" height="8" rx="1"/><rect x="305" y="19" width="3" height="11" rx="1"/><rect x="310" y="16" width="3" height="14" rx="1"/><rect x="315" y="13" width="3" height="17" rx="1"/><path d="M331 16 a9 9 0 0 1 13 0 l-2 2 a6 6 0 0 0 -9 0 z"/><circle cx="337.5" cy="25" r="2.4"/><rect x="352" y="16" width="22" height="11" rx="3" fill="none" stroke="#1C1C1E" stroke-width="1.4"/><rect x="354" y="18" width="16" height="7" rx="1.5"/><rect x="375" y="19" width="2" height="5" rx="1"/></g><text x="20" y="92" font-family="-apple-system, 'SF Pro Display', Helvetica, Arial, sans-serif" font-size="33" font-weight="800" fill="#1C1C1E">Today</text><text x="22" y="116" font-family="-apple-system, 'SF Pro Display', Helvetica, Arial, sans-serif" font-size="15" fill="#8E8E93">5 items expiring soon</text><text x="22" y="156" font-family="-apple-system, 'SF Pro Display', Helvetica, Arial, sans-serif" font-size="13" font-weight="700" fill="#8E8E93" letter-spacing="0.6">EXPIRING SOON</text><rect x="20" y="170" width="353" height="76" rx="16" fill="#FFFFFF"/><rect x="20" y="170" width="5" height="76" rx="2.5" fill="#FF3B30"/><text x="40" y="204" font-family="-apple-system, 'SF Pro Display', Helvetica, Arial, sans-serif" font-size="17" font-weight="700" fill="#1C1C1E">Whole milk</text><text x="40" y="226" font-family="-apple-system, 'SF Pro Display', Helvetica, Arial, sans-serif" font-size="13" fill="#8E8E93">Fridge · Expires today</text><text x="353" y="204" text-anchor="end" font-family="-apple-system, 'SF Pro Display', Helvetica, Arial, sans-serif" font-size="14" font-weight="600" fill="#8E8E93">1 L</text><rect x="20" y="260" width="353" height="76" rx="16" fill="#FFFFFF"/><rect x="20" y="260" width="5" height="76" rx="2.5" fill="#FF9500"/><text x="40" y="294" font-family="-apple-system, 'SF Pro Display', Helvetica, Arial, sans-serif" font-size="17" font-weight="700" fill="#1C1C1E">Chicken breast</text><text x="40" y="316" font-family="-apple-system, 'SF Pro Display', Helvetica, Arial, sans-serif" font-size="13" fill="#8E8E93">Fridge · 2 days left</text><text x="353" y="294" text-anchor="end" font-family="-apple-system, 'SF Pro Display', Helvetica, Arial, sans-serif" font-size="14" font-weight="600" fill="#8E8E93">500 g</text><rect x="20" y="350" width="353" height="76" rx="16" fill="#FFFFFF"/><rect x="20" y="350" width="5" height="76" rx="2.5" fill="#FFCC00"/><text x="40" y="384" font-family="-apple-system, 'SF Pro Display', Helvetica, Arial, sans-serif" font-size="17" font-weight="700" fill="#1C1C1E">Baby spinach</text><text x="40" y="406" font-family="-apple-system, 'SF Pro Display', Helvetica, Arial, sans-serif" font-size="13" fill="#8E8E93">Fridge · 3 days left</text><text x="353" y="384" text-anchor="end" font-family="-apple-system, 'SF Pro Display', Helvetica, Arial, sans-serif" font-size="14" font-weight="600" fill="#8E8E93">1 bag</text><text x="22" y="458" font-family="-apple-system, 'SF Pro Display', Helvetica, Arial, sans-serif" font-size="13" font-weight="700" fill="#8E8E93" letter-spacing="0.6">MEAL IDEA</text><rect x="20" y="470" width="353" height="108" rx="16" fill="#FFFFFF"/><rect x="20" y="470" width="5" height="108" rx="2.5" fill="#34C759"/><text x="40" y="502" font-family="-apple-system, 'SF Pro Display', Helvetica, Arial, sans-serif" font-size="12" font-weight="700" fill="#34C759" letter-spacing="0.6">USES 3 EXPIRING ITEMS</text><text x="40" y="530" font-family="-apple-system, 'SF Pro Display', Helvetica, Arial, sans-serif" font-size="18" font-weight="700" fill="#1C1C1E">Spinach &amp; chicken bowl</text><text x="40" y="554" font-family="-apple-system, 'SF Pro Display', Helvetica, Arial, sans-serif" font-size="13" font-weight="600" fill="#34C759">Ready in 25 min · 1 serving</text><rect x="0" y="786" width="393" height="66" fill="#FFFFFF"/><rect x="0" y="786" width="393" height="1" fill="#E5E5EA"/><rect x="29" y="802" width="20" height="18" rx="4" fill="none" stroke="#34C759" stroke-width="2"/><line x1="29" y1="808" x2="49" y2="808" stroke="#34C759" stroke-width="2"/><line x1="34" y1="799" x2="34" y2="803" stroke="#34C759" stroke-width="2" stroke-linecap="round"/><line x1="44" y1="799" x2="44" y2="803" stroke="#34C759" stroke-width="2" stroke-linecap="round"/><text x="39" y="834" text-anchor="middle" font-family="-apple-system, 'SF Pro Display', Helvetica, Arial, sans-serif" font-size="10" font-weight="600" fill="#34C759">Today</text><rect x="107" y="803" width="22" height="16" rx="3" fill="none" stroke="#8E8E93" stroke-width="2"/><line x1="107" y1="809" x2="129" y2="809" stroke="#8E8E93" stroke-width="2"/><line x1="115" y1="813" x2="121" y2="813" stroke="#8E8E93" stroke-width="2" stroke-linecap="round"/><text x="118" y="834" text-anchor="middle" font-family="-apple-system, 'SF Pro Display', Helvetica, Arial, sans-serif" font-size="10" font-weight="500" fill="#8E8E93">Pantry</text><g stroke="#8E8E93" stroke-width="2.2" fill="none" stroke-linecap="round"><path d="M185 806 v-3 a2 2 0 0 1 2 -2 h3"/><path d="M207 806 v-3 a2 2 0 0 0 -2 -2 h-3"/><path d="M185 817 v3 a2 2 0 0 0 2 2 h3"/><path d="M207 817 v3 a2 2 0 0 1 -2 2 h-3"/><line x1="184" y1="812" x2="208" y2="812"/></g><text x="196" y="834" text-anchor="middle" font-family="-apple-system, 'SF Pro Display', Helvetica, Arial, sans-serif" font-size="10" font-weight="500" fill="#8E8E93">Scan</text><g stroke="#8E8E93" stroke-width="2" fill="none" stroke-linecap="round"><line x1="268" y1="801" x2="268" y2="820"/><path d="M265 801 v5 a3 3 0 0 0 6 0 v-5"/><path d="M282 801 c-4 0 -4 8 0 8 v11"/></g><text x="275" y="834" text-anchor="middle" font-family="-apple-system, 'SF Pro Display', Helvetica, Arial, sans-serif" font-size="10" font-weight="500" fill="#8E8E93">Meals</text><g stroke="#8E8E93" stroke-width="2" fill="none" stroke-linecap="round" stroke-linejoin="round"><path d="M343 803 h3 l2 13 h12 l2 -9 h-15"/><circle cx="350" cy="821" r="1.6" fill="#8E8E93"/><circle cx="361" cy="821" r="1.6" fill="#8E8E93"/></g><text x="354" y="834" text-anchor="middle" font-family="-apple-system, 'SF Pro Display', Helvetica, Arial, sans-serif" font-size="10" font-weight="500" fill="#8E8E93">Shop</text></svg>