<svg width="393" height="852" viewBox="0 0 393 852" xmlns="http://www.w3.org/2000/svg"><rect width="393" height="852" fill="#F2F2F7"/><text x="26" y="36" font-family="-apple-system, 'SF Pro Display', Helvetica, Arial, sans-serif" font-size="16" font-weight="700" fill="#1C1C1E">9:41</text><g fill="#1C1C1E"><rect x="300" y="22" width="3" height="8" rx="1"/><rect x="305" y="19" width="3" height="11" rx="1"/><rect x="310" y="16" width="3" height="14" rx="1"/><rect x="315" y="13" width="3" height="17" rx="1"/><path d="M331 16 a9 9 0 0 1 13 0 l-2 2 a6 6 0 0 0 -9 0 z"/><circle cx="337.5" cy="25" r="2.4"/><rect x="352" y="16" width="22" height="11" rx="3" fill="none" stroke="#1C1C1E" stroke-width="1.4"/><rect x="354" y="18" width="16" height="7" rx="1.5"/><rect x="375" y="19" width="2" height="5" rx="1"/></g><text x="20" y="92" font-family="-apple-system, 'SF Pro Display', Helvetica, Arial, sans-serif" font-size="33" font-weight="800" fill="#1C1C1E">Pantry</text><text x="22" y="116" font-family="-apple-system, 'SF Pro Display', Helvetica, Arial, sans-serif" font-size="15" fill="#8E8E93">24 items · 3 locations</text><rect x="20" y="132" width="353" height="40" rx="12" fill="#E9E9EE"/><circle cx="44" cy="152" r="7" fill="none" stroke="#8E8E93" stroke-width="2"/><line x1="49" y1="157" x2="54" y2="162" stroke="#8E8E93" stroke-width="2" stroke-linecap="round"/><text x="66" y="157" font-family="-apple-system, 'SF Pro Display', Helvetica, Arial, sans-serif" font-size="15" fill="#8E8E93">Search pantry…</text><text x="22" y="192" font-family="-apple-system, 'SF Pro Display', Helvetica, Arial, sans-serif" font-size="13" font-weight="700" fill="#8E8E93" letter-spacing="0.6">FRIDGE</text><rect x="20" y="204" width="353" height="174" rx="16" fill="#FFFFFF"/><text x="40" y="238" font-family="-apple-system, 'SF Pro Display', Helvetica, Arial, sans-serif" font-size="16" font-weight="600" fill="#1C1C1E">Whole milk</text><text x="345" y="234" text-anchor="end" font-family="-apple-system, 'SF Pro Display', Helvetica, Arial, sans-serif" font-size="14" fill="#8E8E93">1 L</text><rect x="285" y="242" width="68" height="20" rx="10" fill="#FF3B3022"/><text x="319" y="256" text-anchor="middle" font-family="-apple-system, 'SF Pro Display', Helvetica, Arial, sans-serif" font-size="11" font-weight="700" fill="#FF3B30">Today</text><rect x="40" y="258" width="313" height="1" fill="#E5E5EA"/><text x="40" y="292" font-family="-apple-system, 'SF Pro Display', Helvetica, Arial, sans-serif" font-size="16" font-weight="600" fill="#1C1C1E">Chicken breast</text><text x="345" y="288" text-anchor="end" font-family="-apple-system, 'SF Pro Display', Helvetica, Arial, sans-serif" font-size="14" fill="#8E8E93">500 g</text><rect x="285" y="296" width="68" height="20" rx="10" fill="#FF950022"/><text x="319" y="310" text-anchor="middle" font-family="-apple-system, 'SF Pro Display', Helvetica, Arial, sans-serif" font-size="11" font-weight="700" fill="#FF9500">2 days</text><rect x="40" y="312" width="313" height="1" fill="#E5E5EA"/><text x="40" y="346" font-family="-apple-system, 'SF Pro Display', Helvetica, Arial, sans-serif" font-size="16" font-weight="600" fill="#1C1C1E">Greek yogurt</text><text x="345" y="342" text-anchor="end" font-family="-apple-system, 'SF Pro Display', Helvetica, Arial, sans-serif" font-size="14" fill="#8E8E93">500 g</text><rect x="285" y="350" width="68" height="20" rx="10" fill="#34C75922"/><text x="319" y="364" text-anchor="middle" font-family="-apple-system, 'SF Pro Display', Helvetica, Arial, sans-serif" font-size="11" font-weight="700" fill="#34C759">6 days</text><text x="22" y="396" font-family="-apple-system, 'SF Pro Display', Helvetica, Arial, sans-serif" font-size="13" font-weight="700" fill="#8E8E93" letter-spacing="0.6">FREEZER</text><rect x="20" y="408" width="353" height="120" rx="16" fill="#FFFFFF"/><text x="40" y="442" font-family="-apple-system, 'SF Pro Display', Helvetica, Arial, sans-serif" font-size="16" font-weight="600" fill="#1C1C1E">Peas</text><text x="345" y="438" text-anchor="end" font-family="-apple-system, 'SF Pro Display', Helvetica, Arial, sans-serif" font-size="14" fill="#8E8E93">1 bag</text><rect x="285" y="446" width="68" height="20" rx="10" fill="#34C75922"/><text x="319" y="460" text-anchor="middle" font-family="-apple-system, 'SF Pro Display', Helvetica, Arial, sans-serif" font-size="11" font-weight="700" fill="#34C759">Mar 2026</text><rect x="40" y="462" width="313" height="1" fill="#E5E5EA"/><text x="40" y="496" font-family="-apple-system, 'SF Pro Display', Helvetica, Arial, sans-serif" font-size="16" font-weight="600" fill="#1C1C1E">Salmon fillet</text><text x="345" y="492" text-anchor="end" font-family="-apple-system, 'SF Pro Display', Helvetica, Arial, sans-serif" font-size="14" fill="#8E8E93">2 pcs</text><rect x="285" y="500" width="68" height="20" rx="10" fill="#34C75922"/><text x="319" y="514" text-anchor="middle" font-family="-apple-system, 'SF Pro Display', Helvetica, Arial, sans-serif" font-size="11" font-weight="700" fill="#34C759">Feb 2026</text><text x="22" y="546" font-family="-apple-system, 'SF Pro Display', Helvetica, Arial, sans-serif" font-size="13" font-weight="700" fill="#8E8E93" letter-spacing="0.6">PANTRY</text><rect x="20" y="558" width="353" height="120" rx="16" fill="#FFFFFF"/><text x="40" y="592" font-family="-apple-system, 'SF Pro Display', Helvetica, Arial, sans-serif" font-size="16" font-weight="600" fill="#1C1C1E">Olive oil</text><text x="345" y="588" text-anchor="end" font-family="-apple-system, 'SF Pro Display', Helvetica, Arial, sans-serif" font-size="14" fill="#8E8E93">750 ml</text><rect x="285" y="596" width="68" height="20" rx="10" fill="#34C75922"/><text x="319" y="610" text-anchor="middle" font-family="-apple-system, 'SF Pro Display', Helvetica, Arial, sans-serif" font-size="11" font-weight="700" fill="#34C759">2027</text><rect x="40" y="612" width="313" height="1" fill="#E5E5EA"/><text x="40" y="646" font-family="-apple-system, 'SF Pro Display', Helvetica, Arial, sans-serif" font-size="16" font-weight="600" fill="#1C1C1E">Pasta</text><text x="345" y="642" text-anchor="end" font-family="-apple-system, 'SF Pro Display', Helvetica, Arial, sans-serif" font-size="14" fill="#8E8E93">500 g</text><rect x="285" y="650" width="68" height="20" rx="10" fill="#34C75922"/><text x="319" y="664" text-anchor="middle" font-family="-apple-system, 'SF Pro Display', Helvetica, Arial, sans-serif" font-size="11" font-weight="700" fill="#34C759">2026</text><rect x="0" y="786" width="393" height="66" fill="#FFFFFF"/><rect x="0" y="786" width="393" height="1" fill="#E5E5EA"/><rect x="29" y="802" width="20" height="18" rx="4" fill="none" stroke="#8E8E93" stroke-width="2"/><line x1="29" y1="808" x2="49" y2="808" stroke="#8E8E93" stroke-width="2"/><line x1="34" y1="799" x2="34" y2="803" stroke="#8E8E93" stroke-width="2" stroke-linecap="round"/><line x1="44" y1="799" x2="44" y2="803" stroke="#8E8E93" stroke-width="2" stroke-linecap="round"/><text x="39" y="834" text-anchor="middle" font-family="-apple-system, 'SF Pro Display', Helvetica, Arial, sans-serif" font-size="10" font-weight="500" fill="#8E8E93">Today</text><rect x="107" y="803" width="22" height="16" rx="3" fill="none" stroke="#34C759" stroke-width="2"/><line x1="107" y1="809" x2="129" y2="809" stroke="#34C759" stroke-width="2"/><line x1="115" y1="813" x2="121" y2="813" stroke="#34C759" stroke-width="2" stroke-linecap="round"/><text x="118" y="834" text-anchor="middle" font-family="-apple-system, 'SF Pro Display', Helvetica, Arial, sans-serif" font-size="10" font-weight="600" fill="#34C759">Pantry</text><g stroke="#8E8E93" stroke-width="2.2" fill="none" stroke-linecap="round"><path d="M185 806 v-3 a2 2 0 0 1 2 -2 h3"/><path d="M207 806 v-3 a2 2 0 0 0 -2 -2 h-3"/><path d="M185 817 v3 a2 2 0 0 0 2 2 h3"/><path d="M207 817 v3 a2 2 0 0 1 -2 2 h-3"/><line x1="184" y1="812" x2="208" y2="812"/></g><text x="196" y="834" text-anchor="middle" font-family="-apple-system, 'SF Pro Display', Helvetica, Arial, sans-serif" font-size="10" font-weight="500" fill="#8E8E93">Scan</text><g stroke="#8E8E93" stroke-width="2" fill="none" stroke-linecap="round"><line x1="268" y1="801" x2="268" y2="820"/><path d="M265 801 v5 a3 3 0 0 0 6 0 v-5"/><path d="M282 801 c-4 0 -4 8 0 8 v11"/></g><text x="275" y="834" text-anchor="middle" font-family="-apple-system, 'SF Pro Display', Helvetica, Arial, sans-serif" font-size="10" font-weight="500" fill="#8E8E93">Meals</text><g stroke="#8E8E93" stroke-width="2" fill="none" stroke-linecap="round" stroke-linejoin="round"><path d="M343 803 h3 l2 13 h12 l2 -9 h-15"/><circle cx="350" cy="821" r="1.6" fill="#8E8E93"/><circle cx="361" cy="821" r="1.6" fill="#8E8E93"/></g><text x="354" y="834" text-anchor="middle" font-family="-apple-system, 'SF Pro Display', Helvetica, Arial, sans-serif" font-size="10" font-weight="500" fill="#8E8E93">Shop</text></svg>