<svg width="393" height="852" viewBox="0 0 393 852" xmlns="http://www.w3.org/2000/svg"><rect width="393" height="852" fill="#0B0B0D"/><text x="26" y="36" font-family="-apple-system, 'SF Pro Display', Helvetica, Arial, sans-serif" font-size="16" font-weight="700" fill="#FFFFFF">9:41</text><g fill="#FFFFFF"><rect x="300" y="22" width="3" height="8" rx="1"/><rect x="305" y="19" width="3" height="11" rx="1"/><rect x="310" y="16" width="3" height="14" rx="1"/><rect x="315" y="13" width="3" height="17" rx="1"/><path d="M331 16 a9 9 0 0 1 13 0 l-2 2 a6 6 0 0 0 -9 0 z"/><circle cx="337.5" cy="25" r="2.4"/><rect x="352" y="16" width="22" height="11" rx="3" fill="none" stroke="#FFFFFF" stroke-width="1.4"/><rect x="354" y="18" width="16" height="7" rx="1.5"/><rect x="375" y="19" width="2" height="5" rx="1"/></g><text x="196" y="120" text-anchor="middle" font-family="-apple-system, 'SF Pro Display', Helvetica, Arial, sans-serif" font-size="20" font-weight="700" fill="#FFFFFF">Scan a barcode</text><text x="196" y="148" text-anchor="middle" font-family="-apple-system, 'SF Pro Display', Helvetica, Arial, sans-serif" font-size="14" fill="#AEAEB2">Point your camera at a product</text><path d="M94 250 h-28 v28" fill="none" stroke="#34C759" stroke-width="4" stroke-linecap="round"/><path d="M299 250 h28 v28" fill="none" stroke="#34C759" stroke-width="4" stroke-linecap="round"/><path d="M94 420 h-28 v-28" fill="none" stroke="#34C759" stroke-width="4" stroke-linecap="round"/><path d="M299 420 h28 v-28" fill="none" stroke="#34C759" stroke-width="4" stroke-linecap="round"/><rect x="110" y="300" width="4" height="70" fill="#FFFFFF"/><rect x="118" y="300" width="2" height="70" fill="#FFFFFF"/><rect x="124" y="300" width="3" height="70" fill="#FFFFFF"/><rect x="131" y="300" width="4" height="70" fill="#FFFFFF"/><rect x="139" y="300" width="3" height="70" fill="#FFFFFF"/><rect x="146" y="300" width="2" height="70" fill="#FFFFFF"/><rect x="152" y="300" width="4" height="70" fill="#FFFFFF"/><rect x="160" y="300" width="2" height="70" fill="#FFFFFF"/><rect x="166" y="300" width="3" height="70" fill="#FFFFFF"/><rect x="173" y="300" width="4" height="70" fill="#FFFFFF"/><rect x="181" y="300" width="3" height="70" fill="#FFFFFF"/><rect x="188" y="300" width="2" height="70" fill="#FFFFFF"/><rect x="194" y="300" width="4" height="70" fill="#FFFFFF"/><rect x="202" y="300" width="2" height="70" fill="#FFFFFF"/><rect x="208" y="300" width="3" height="70" fill="#FFFFFF"/><rect x="215" y="300" width="4" height="70" fill="#FFFFFF"/><rect x="223" y="300" width="3" height="70" fill="#FFFFFF"/><rect x="230" y="300" width="2" height="70" fill="#FFFFFF"/><rect x="236" y="300" width="4" height="70" fill="#FFFFFF"/><rect x="244" y="300" width="2" height="70" fill="#FFFFFF"/><rect x="250" y="300" width="3" height="70" fill="#FFFFFF"/><rect x="257" y="300" width="4" height="70" fill="#FFFFFF"/><rect x="265" y="300" width="3" height="70" fill="#FFFFFF"/><rect x="272" y="300" width="2" height="70" fill="#FFFFFF"/><rect x="278" y="300" width="4" height="70" fill="#FFFFFF"/><rect x="286" y="300" width="2" height="70" fill="#FFFFFF"/><rect x="292" y="300" width="3" height="70" fill="#FFFFFF"/><rect x="299" y="300" width="4" height="70" fill="#FFFFFF"/><rect x="307" y="300" width="3" height="70" fill="#FFFFFF"/><rect x="314" y="300" width="2" height="70" fill="#FFFFFF"/><rect x="320" y="300" width="4" height="70" fill="#FFFFFF"/><rect x="328" y="300" width="2" height="70" fill="#FFFFFF"/><rect x="334" y="300" width="3" height="70" fill="#FFFFFF"/><rect x="341" y="300" width="4" height="70" fill="#FFFFFF"/><line x1="66" y1="335" x2="327" y2="335" stroke="#34C759" stroke-width="2" opacity="0.9"/><rect x="0" y="560" width="393" height="226" rx="28" fill="#FFFFFF"/><rect x="176" y="580" width="40" height="5" rx="2.5" fill="#E5E5EA"/><rect x="24" y="606" width="64" height="64" rx="14" fill="#F2F2F7"/><text x="56" y="646" text-anchor="middle" font-family="-apple-system, 'SF Pro Display', Helvetica, Arial, sans-serif" font-size="26">🥛</text><text x="104" y="630" font-family="-apple-system, 'SF Pro Display', Helvetica, Arial, sans-serif" font-size="19" font-weight="700" fill="#1C1C1E">Whole Milk 1L</text><text x="104" y="654" font-family="-apple-system, 'SF Pro Display', Helvetica, Arial, sans-serif" font-size="14" fill="#8E8E93">Open Food Facts · 92% match</text><rect x="24" y="694" width="345" height="54" rx="14" fill="#34C759"/><text x="196" y="728" text-anchor="middle" font-family="-apple-system, 'SF Pro Display', Helvetica, Arial, sans-serif" font-size="17" font-weight="700" fill="#FFFFFF">Add to pantry</text><rect x="0" y="786" width="393" height="66" fill="#0B0B0D"/><rect x="0" y="786" width="393" height="1" fill="#1C1C1E"/><rect x="29" y="802" width="20" height="18" rx="4" fill="none" stroke="#8E8E93" stroke-width="2"/><line x1="29" y1="808" x2="49" y2="808" stroke="#8E8E93" stroke-width="2"/><line x1="34" y1="799" x2="34" y2="803" stroke="#8E8E93" stroke-width="2" stroke-linecap="round"/><line x1="44" y1="799" x2="44" y2="803" stroke="#8E8E93" stroke-width="2" stroke-linecap="round"/><text x="39" y="834" text-anchor="middle" font-family="-apple-system, 'SF Pro Display', Helvetica, Arial, sans-serif" font-size="10" font-weight="500" fill="#8E8E93">Today</text><rect x="107" y="803" width="22" height="16" rx="3" fill="none" stroke="#8E8E93" stroke-width="2"/><line x1="107" y1="809" x2="129" y2="809" stroke="#8E8E93" stroke-width="2"/><line x1="115" y1="813" x2="121" y2="813" stroke="#8E8E93" stroke-width="2" stroke-linecap="round"/><text x="118" y="834" text-anchor="middle" font-family="-apple-system, 'SF Pro Display', Helvetica, Arial, sans-serif" font-size="10" font-weight="500" fill="#8E8E93">Pantry</text><g stroke="#34C759" stroke-width="2.2" fill="none" stroke-linecap="round"><path d="M185 806 v-3 a2 2 0 0 1 2 -2 h3"/><path d="M207 806 v-3 a2 2 0 0 0 -2 -2 h-3"/><path d="M185 817 v3 a2 2 0 0 0 2 2 h3"/><path d="M207 817 v3 a2 2 0 0 1 -2 2 h-3"/><line x1="184" y1="812" x2="208" y2="812"/></g><text x="196" y="834" text-anchor="middle" font-family="-apple-system, 'SF Pro Display', Helvetica, Arial, sans-serif" font-size="10" font-weight="600" fill="#34C759">Scan</text><g stroke="#8E8E93" stroke-width="2" fill="none" stroke-linecap="round"><line x1="268" y1="801" x2="268" y2="820"/><path d="M265 801 v5 a3 3 0 0 0 6 0 v-5"/><path d="M282 801 c-4 0 -4 8 0 8 v11"/></g><text x="275" y="834" text-anchor="middle" font-family="-apple-system, 'SF Pro Display', Helvetica, Arial, sans-serif" font-size="10" font-weight="500" fill="#8E8E93">Meals</text><g stroke="#8E8E93" stroke-width="2" fill="none" stroke-linecap="round" stroke-linejoin="round"><path d="M343 803 h3 l2 13 h12 l2 -9 h-15"/><circle cx="350" cy="821" r="1.6" fill="#8E8E93"/><circle cx="361" cy="821" r="1.6" fill="#8E8E93"/></g><text x="354" y="834" text-anchor="middle" font-family="-apple-system, 'SF Pro Display', Helvetica, Arial, sans-serif" font-size="10" font-weight="500" fill="#8E8E93">Shop</text></svg>